# xmcd
#
# Track frame offsets:
#	150
#	16337
#	34726
#	47181
#	67857
#	84210
#	97965
#	114878
#	132481
#	148025
#
# Disc length: 2141 seconds
#
# Revision: 0
# Processed by: cddbd v1.5.1PL0 Copyright (c) Steve Scherf et al.
# Submitted via: dBpowerAMP V4.0
#
DISCID=79085b0a
DTITLE=Various Artist - matem ayý
DYEAR=2005
DGENRE=Acid Jazz
TTITLE0=murat belet - Track01
TTITLE1=murat belet - Track02
TTITLE2=murat belet - Track03
TTITLE3=murat belet - Track04
TTITLE4=murat belet - Track05
TTITLE5=murat belet - Track06
TTITLE6=murat belet - Track07
TTITLE7=murat belet - Track08
TTITLE8=murat belet - Track09
TTITLE9=murat belet - Track10
EXTD=
EXTT0=
EXTT1=
EXTT2=
EXTT3=
EXTT4=
EXTT5=
EXTT6=
EXTT7=
EXTT8=
EXTT9=
PLAYORDER=
